<?xml version="1.0" encoding="utf-8"?>
<!-- Generator: Adobe Illustrator 25.4.0, SVG Export Plug-In . SVG Version: 6.00 Build 0)  -->
<svg version="1.1" id="레이어_1" xmlns="http://www.w3.org/2000/svg" xmlns:xlink="http://www.w3.org/1999/xlink" x="0px"
	 y="0px" viewBox="0 0 177 16" style="enable-background:new 0 0 177 16;" xml:space="preserve">
<g>
	<path d="M10.79,2.46c-0.02,4.89-2.44,8.04-6.38,10.02l-0.88-1.1c2.21-1,3.96-2.5,4.95-4.47L4.01,7.4L3.76,6.15l5.19-0.39
		C9.16,5.1,9.28,4.4,9.32,3.65H4.31V2.46H10.79z M14.32,6.6h2.22v1.17h-2.22v7.17h-1.4V0.99h1.4V6.6z"/>
	<path d="M24.59,2.46c-0.02,4.89-2.44,8.04-6.38,10.02l-0.88-1.1c2.21-1,3.96-2.5,4.95-4.47L17.81,7.4l-0.25-1.24l5.19-0.39
		c0.21-0.66,0.33-1.36,0.38-2.11h-5.01V2.46H24.59z M28.11,6.6h2.22v1.17h-2.22v7.17h-1.4V0.99h1.4V6.6z"/>
	<path d="M38.13,9.39v2.58h5.61v1.16h-12.6v-1.16h5.58V9.38C34,9.17,32.25,7.73,32.25,5.64c0-2.26,2.07-3.76,5.19-3.76
		c3.13,0,5.19,1.5,5.19,3.76C42.63,7.74,40.86,9.18,38.13,9.39z M37.44,3.02c-2.25,0-3.73,1.08-3.73,2.62s1.48,2.62,3.73,2.62
		c2.25,0,3.75-1.08,3.75-2.62S39.7,3.02,37.44,3.02z"/>
	<path d="M51.3,3.83l-1.95,0.44V3.45l2.58-1.2h0.76v10.96h-1.4V3.83z"/>
	<path d="M55.35,13.17v-1.16h5.57V8.99h1.41v3.03h5.62v1.16H55.35z M66.81,9.87c-2.22-0.39-4.47-1.77-5.16-3.21
		c-0.66,1.52-2.85,2.82-5.16,3.19l-0.62-1.14c2.22-0.24,4.74-1.68,5.04-3.42h-4.35V4.16h10.16V5.3H62.4c0.3,1.74,2.96,3.22,5.01,3.4
		L66.81,9.87z M59.34,2.72V1.56h4.6v1.15H59.34z"/>
	<path d="M73.34,13.17v-1.16h5.57v-2.2h-4.05V5.33h8.11V3.29h-8.14V2.13h9.55v4.35h-8.12v2.17h8.49v1.15h-4.44v2.2h5.62v1.16H73.34z
		"/>
	<path d="M87.14,12.9v-1.14h12.6v1.14H87.14z M98.06,2.57c0,3.18-0.24,6.39-0.64,8.19l-1.38-0.18c0.35-1.33,0.58-4.77,0.58-6.87
		h-8.16V2.57H98.06z"/>
	<path d="M108.7,5.4c0,2.01-1.58,3.4-3.72,3.4c-2.14,0-3.72-1.4-3.72-3.39c0-2.01,1.58-3.48,3.72-3.48
		C107.13,1.94,108.7,3.41,108.7,5.4z M102.75,5.39c0,1.29,0.92,2.23,2.23,2.23c1.37,0,2.24-0.93,2.24-2.22
		c0-1.32-0.87-2.27-2.24-2.27C103.66,3.14,102.75,4.1,102.75,5.39z M103.21,14.51v-4.35h1.41v3.21h8.08v1.14H103.21z M110.97,11.12
		V0.99h1.41v10.12H110.97z"/>
	<path d="M119.41,1.5h1.23l-3.71,13.27h-1.23L119.41,1.5z"/>
	<path d="M132.17,12.27c-1.19,0.15-3.04,0.3-4.75,0.39c-1.53,0.08-3.22,0.15-4.4,0.15l-0.22-1.18c1.14,0,2.49-0.03,3.87-0.09v-1.27
		c-1.58-0.21-2.64-1.1-2.64-2.31c0-1.42,1.41-2.35,3.37-2.35c2,0,3.39,0.92,3.39,2.35c0,1.25-1.1,2.13-2.71,2.32v1.19
		c1.48-0.08,3.01-0.18,3.96-0.31L132.17,12.27z M123.27,4.88V3.75h8.32v1.12H123.27z M125.31,2.79V1.65h4.04v1.14H125.31z
		 M127.4,6.72c-1.09,0-1.89,0.52-1.89,1.23c0,0.67,0.79,1.23,1.89,1.23c1.11,0,1.92-0.56,1.92-1.23
		C129.32,7.25,128.51,6.72,127.4,6.72z M132.9,14.94V0.99h1.41v13.95H132.9z"/>
	<path d="M140.41,11.1V8.63c-1.37,0.06-2.58,0.08-3.79,0.1l-0.23-1.17c1.61,0,3.11-0.01,4.63-0.07c1.79-0.09,3.17-0.18,4.47-0.33
		l0.1,1.06c-0.93,0.13-2.38,0.25-3.78,0.33v2.55H140.41z M141,6.81c-2.13,0-3.71-0.97-3.71-2.58c0-1.58,1.58-2.6,3.71-2.6
		c2.16,0,3.71,1.02,3.71,2.61C144.7,5.82,143.16,6.81,141,6.81z M138.25,14.58v-4.06h1.41v2.93h8.71v1.14H138.25z M141,2.78
		c-1.32,0-2.19,0.63-2.19,1.47c0,0.82,0.87,1.44,2.19,1.44c1.33,0,2.19-0.62,2.19-1.44C143.19,3.42,142.33,2.78,141,2.78z
		 M146.71,11.72v-1.48h-2.75V9.18h2.75V0.99h1.39v10.72H146.71z"/>
	<path d="M157.46,2.48c-0.09,4.42-2.42,7.69-6.22,9.76l-0.87-1.08c3.3-1.58,5.32-4.48,5.58-7.5h-4.96V2.48H157.46z M161.12,6.71
		h2.24v1.17h-2.24v7.07h-1.39V0.99h1.39V6.71z"/>
	<path d="M171.69,4.95c0,2-1.58,3.25-3.57,3.25c-2,0-3.57-1.26-3.57-3.24c0-1.96,1.58-3.33,3.57-3.33
		C170.12,1.64,171.69,2.97,171.69,4.95z M165.98,4.94c0,1.26,0.95,2.04,2.15,2.04c1.23,0,2.14-0.78,2.14-2.02
		c0-1.29-0.9-2.08-2.14-2.08C166.91,2.87,165.98,3.68,165.98,4.94z M166.55,14.76V9.23h1.41v1.64h6.24V9.21h1.41v5.55H166.55z
		 M174.2,11.99h-6.24v1.63h6.24V11.99z M174.18,8.46V0.99h1.41v7.47H174.18z"/>
</g>
</svg>
